<svg id="Layer_1" data-name="Layer 1" xmlns="http://www.w3.org/2000/svg" viewBox="0 0 14 14"><defs><style>.cls-1{fill:none;}.cls-2{fill:#393939;}</style></defs><title>bins</title><rect class="cls-1" width="14" height="14"/><path class="cls-2" d="M11.82,3.32A1.06,1.06,0,0,0,10.7,2.5H9.6c-.29,0-.25,0-.25-.25A1.11,1.11,0,0,0,8.14,1H5.85a1.17,1.17,0,0,0-.58.12,1.1,1.1,0,0,0-.63,1.06c0,.28,0,.28-.28.28s-.8,0-1.2,0a1,1,0,0,0-1,.89,1,1,0,0,0,.63,1.15.19.19,0,0,1,.14.22c0,1.12,0,2.24,0,3.36v3.31A1.46,1.46,0,0,0,4.36,13H9.65a1.35,1.35,0,0,0,1.06-.5,1.65,1.65,0,0,0,.36-1.11V4.71c0-.07,0-.11.09-.14A1,1,0,0,0,11.82,3.32Zm-6.62-1s0-.1,0-.14a.53.53,0,0,1,.54-.57c.83,0,1.67,0,2.5,0,.34,0,.53.23.54.59s0,.3-.29.3H5.38C5.24,2.51,5.18,2.46,5.2,2.32Zm5.3,5.81c0,1.07,0,2.13,0,3.2a2.85,2.85,0,0,1,0,.41.85.85,0,0,1-.75.7H9.5c-1.66,0-3.32,0-5,0a.93.93,0,0,1-1-1c0-2.22,0-4.43,0-6.64,0-.12,0-.16.16-.16h6.71c.15,0,.16.06.16.17C10.5,5.91,10.5,7,10.5,8.13Zm.14-4.07H3.27a.5.5,0,0,1-.14-1h7.51c.42,0,.65.18.65.5S11.05,4.06,10.64,4.06Zm-5,4.26V10.8a1.15,1.15,0,0,1,0,.19.24.24,0,0,1-.22.24.27.27,0,0,1-.3-.17.66.66,0,0,1,0-.24v-5a.55.55,0,0,1,0-.18.27.27,0,0,1,.54,0V8.32Zm1.1,0V5.82a1.27,1.27,0,0,1,0-.2A.25.25,0,0,1,7,5.38a.27.27,0,0,1,.27.22,1.27,1.27,0,0,1,0,.2v5.09c0,.22-.11.34-.28.34s-.28-.12-.28-.34Zm1.65,0V5.81a1.27,1.27,0,0,1,0-.2.27.27,0,0,1,.26-.23.26.26,0,0,1,.27.19.83.83,0,0,1,0,.22v5a.64.64,0,0,1,0,.2.24.24,0,0,1-.27.21A.25.25,0,0,1,8.38,11a1.21,1.21,0,0,1,0-.19Z" transform="translate(0 0)"/></svg>