<svg id="Layer_1" data-name="Layer 1" xmlns="http://www.w3.org/2000/svg" viewBox="0 0 14 14"><defs><style>.cls-1{fill:none;}.cls-2{fill:#393939;}</style></defs><title>boxes</title><rect class="cls-1" width="14" height="14"/><path class="cls-2" d="M11.94,3.42,7.22,1.48a.54.54,0,0,0-.43,0L2.09,3.42c-.28.11-.33.17-.33.47v6.19a.37.37,0,0,0,.29.43l4.75,2a.51.51,0,0,0,.42,0l4.74-2c.23-.09.29-.17.29-.45V3.88C12.25,3.6,12.2,3.53,11.94,3.42Zm-7.53-.2,2.47-1a.3.3,0,0,1,.26,0l1.06.44-1.07.47L4.43,4.29a.3.3,0,0,1-.26,0L3,3.8ZM6.66,9.78v1.87L6,11.37,2.62,10c-.11,0-.17-.08-.16-.22V4.49a.86.86,0,0,1,0-.15l1.46.6C4,5,4,5.05,4,5.12c0,.55,0,1.09,0,1.63a.34.34,0,0,0,.41.37.36.36,0,0,0,.28-.4V5.45a.4.4,0,0,1,0-.18L6.6,6c.09,0,.06.11.06.17ZM7.13,5.4a.3.3,0,0,1-.26,0L5.39,4.79a.27.27,0,0,1-.15-.09l1.43-.63L9,3.07a.33.33,0,0,1,.29,0l1.61.66c.05,0,.11,0,.14.08l-1.93.8ZM11.39,10l-3.9,1.59-.14.05V6.24A.23.23,0,0,1,7.51,6c1.3-.52,2.59-1,3.88-1.59l.16-.05v5.4A.22.22,0,0,1,11.39,10Z" transform="translate(0 0)"/></svg>