<svg id="Layer_1" data-name="Layer 1" xmlns="http://www.w3.org/2000/svg" viewBox="0 0 14 14"><defs><style>.cls-1{fill:none;}.cls-2{fill:#393939;}</style></defs><title>chairs</title><rect class="cls-1" width="14" height="14"/><path class="cls-2" d="M12,6.51a1.36,1.36,0,0,0-.91-1.31A.18.18,0,0,1,11,5c0-.72,0-1.44,0-2.15a1.39,1.39,0,0,0-.93-1.34,2.11,2.11,0,0,0-.75-.12H4.65a1.66,1.66,0,0,0-1.31.52A1.69,1.69,0,0,0,3,3.08V5a.17.17,0,0,1-.12.19A1.29,1.29,0,0,0,2,6.47c0,1.15,0,2.29,0,3.44a1.28,1.28,0,0,0,1.22,1.36c.1,0,.11.06.1.14,0,.24,0,.48,0,.72a.46.46,0,0,0,.47.48h.38a.49.49,0,0,0,.54-.53v-.67c0-.09,0-.13.12-.13H9.18c.12,0,.14,0,.14.14s0,.45,0,.67a.49.49,0,0,0,.53.52h.32a.48.48,0,0,0,.55-.55v-.63c0-.1,0-.15.13-.16a1.21,1.21,0,0,0,.58-.19A1.38,1.38,0,0,0,12,9.82C12.05,8.72,12.05,7.62,12,6.51ZM3.42,3.12a2,2,0,0,1,.06-.49,1,1,0,0,1,1-.78c.84,0,1.67,0,2.51,0H9.25a2.35,2.35,0,0,1,.52,0,1,1,0,0,1,.76,1c0,.71,0,1.43,0,2.15,0,.08,0,.11-.1.14A1.35,1.35,0,0,0,9.32,6.59c0,.13,0,.17-.17.17H4.82c-.14,0-.17,0-.17-.17a1.35,1.35,0,0,0-.86-1.4l0,0c-.1,0-.26,0-.29-.1s0-.24,0-.36ZM9.31,8.65c0,.11,0,.14-.14.14H4.8c-.12,0-.15,0-.15-.15,0-.42,0-.85,0-1.27,0-.13,0-.16.16-.16H9.15c.13,0,.16,0,.16.16C9.3,7.8,9.3,8.23,9.31,8.65Zm-5.19,3.5h0c-.37,0-.37,0-.37-.45v-.17c0-.28,0-.24.24-.24s.24,0,.24.24v.52C4.22,12.12,4.2,12.16,4.12,12.15Zm6.11-.42v.13c0,.29,0,.29-.3.3-.13,0-.17,0-.17-.17a5.42,5.42,0,0,0,0-.57c0-.09,0-.13.12-.14.34,0,.34,0,.34.33Zm1.35-2a1.41,1.41,0,0,1-.09.53.77.77,0,0,1-.68.52,8.68,8.68,0,0,1-1,0H3.54a2,2,0,0,1-.49,0,.85.85,0,0,1-.64-.89c0-1.15,0-2.31,0-3.46a.88.88,0,0,1,.92-.89.9.9,0,0,1,.89,1v2.4c0,.27.06.33.32.33H9.46c.25,0,.31-.07.31-.31V6.54a.92.92,0,0,1,.57-.92.89.89,0,0,1,1.24.84C11.59,7.56,11.59,8.66,11.58,9.77Z" transform="translate(0 0)"/></svg>