<svg id="Layer_1" data-name="Layer 1" xmlns="http://www.w3.org/2000/svg" viewBox="0 0 14 14"><defs><style>.cls-1{fill:none;}.cls-2{fill:#393939;}</style></defs><title>couch</title><rect class="cls-1" width="14" height="14"/><path class="cls-2" d="M11.78,5a.23.23,0,0,1-.26-.16,3.77,3.77,0,0,0-1-1.24A5.28,5.28,0,0,0,6.67,2.4,4.68,4.68,0,0,0,2.59,4.93.16.16,0,0,1,2.41,5a1.56,1.56,0,0,0-.68.06,1.21,1.21,0,0,0-.82,1.4,1.27,1.27,0,0,0,1.26,1c.22,0,.26.06.27.22A6.26,6.26,0,0,1,2.35,8.8a2.16,2.16,0,0,0-.11.79,1.14,1.14,0,0,0,.91,1c.11,0,.14.07.13.17v.59c0,.2.1.31.26.32s.27-.1.28-.31,0-.36,0-.54,0-.2.19-.2c1,0,2,0,3,0s2,0,3,0c.16,0,.21,0,.2.2a3.37,3.37,0,0,0,0,.55c0,.2.11.3.28.3s.24-.11.25-.3v-.61c0-.11,0-.15.13-.17a1.13,1.13,0,0,0,.88-1.34c0-.1,0-.2-.05-.3a5.13,5.13,0,0,1-.1-1.35c0-.13,0-.19.19-.17A1.25,1.25,0,0,0,13.11,6.3,1.22,1.22,0,0,0,11.78,5ZM3.09,5.1A3.91,3.91,0,0,1,5.33,3.21,5,5,0,0,1,10,3.86,3.2,3.2,0,0,1,11,5c.05.1.06.15,0,.22A2.54,2.54,0,0,0,9.78,7.09a5.23,5.23,0,0,0-.11,1c0,.15-.06.17-.18.17H4.56c-.19,0-.23-.06-.24-.23A4.39,4.39,0,0,0,4,6.39a2.25,2.25,0,0,0-.85-1C3,5.26,3,5.21,3.09,5.1Zm9.39,1.46a.73.73,0,0,1-.71.33.53.53,0,0,0-.67.43,3.15,3.15,0,0,0,0,1.26c0,.25.07.5.11.75a.59.59,0,0,1-.62.75H3.46a.6.6,0,0,1-.66-.44c-.08-.21,0-.4.05-.6A6.2,6.2,0,0,0,3,7.55c-.06-.53-.27-.71-.79-.64a.79.79,0,0,1-.73-.54.67.67,0,0,1,.39-.75,1,1,0,0,1,.88,0,2.19,2.19,0,0,1,1,1.61,8.47,8.47,0,0,1,.1,1.12c0,.27.1.35.36.35H9.81c.28,0,.36-.07.38-.36A6.61,6.61,0,0,1,10.35,7a2,2,0,0,1,1-1.34.89.89,0,0,1,1.12.19A.63.63,0,0,1,12.48,6.56Z" transform="translate(0 0)"/></svg>