<svg id="Layer_1" data-name="Layer 1" xmlns="http://www.w3.org/2000/svg" viewBox="0 0 14 14"><defs><style>.cls-1{fill:none;}.cls-2{fill:#393939;}</style></defs><title>desk</title><rect class="cls-1" width="14" height="14"/><path class="cls-2" d="M13.52,3.7c0-.38,0-.42-.42-.42H.73q-.24,0-.24.24,0,.68,0,1.35a.23.23,0,0,0,.24.24h.41c.17,0,.2,0,.2.21v5.15c0,.27.07.34.34.34h.75c.29,0,.34-.05.34-.34,0-1.72,0-3.44,0-5.15,0-.15,0-.21.2-.21H6.44c.14,0,.19,0,.19.18,0,.79,0,1.59,0,2.38,0,.34,0,.38.39.39h4c.17,0,.21,0,.21.21,0,.73,0,1.45,0,2.18,0,.31,0,.37.36.37h.75c.28,0,.34-.06.34-.35v-5a1.34,1.34,0,0,0,0-.2c0-.09,0-.12.12-.12h.45c.23,0,.28-.07.29-.3ZM2.32,7.5v.22c0,.82,0,1.63,0,2.44,0,.16,0,.2-.19.19-.33,0-.33,0-.33-.34V5.36c0-.18,0-.27.23-.24h.1c.15,0,.19,0,.19.18C2.31,6,2.32,6.77,2.32,7.5ZM7.07,5.26c0-.1,0-.14.14-.14h1.3c.09,0,.13,0,.12.11s0,.15.15.15h.73c.11,0,.15,0,.14-.14s0-.14.14-.14c.42,0,.84,0,1.27,0,.13,0,.15,0,.15.16s0,.47,0,.71-.05.17-.18.17H7.31c-.2,0-.25-.06-.24-.25A4.42,4.42,0,0,0,7.07,5.26Zm4.14,1.49c0,.24,0,.47,0,.71s-.05.16-.17.16H7.24c-.13,0-.17,0-.17-.17s0-.48,0-.72,0-.13.14-.13h1.3c.05,0,.13,0,.12.07s.08.14.18.14h.71c.06,0,.14,0,.13-.08s.06-.13.16-.13h1.24C11.16,6.6,11.22,6.62,11.21,6.75Zm.77,3.6h-.12c-.15,0-.18,0-.18-.18,0-.82,0-1.63,0-2.45s0-1.6,0-2.4c0-.15,0-.21.2-.2s.32,0,.32.32c0,1.56,0,3.12,0,4.68C12.21,10.3,12.17,10.38,12,10.35Zm1-5.73c-.12.11-.42,0-.64,0H1.17c-.2,0-.26,0-.24-.24a3.37,3.37,0,0,0,0-.55c0-.09,0-.13.12-.12H12.82c.16,0,.25,0,.22.21S13.13,4.49,13,4.62Z" transform="translate(0 0)"/></svg>