<svg id="Layer_1" data-name="Layer 1" xmlns="http://www.w3.org/2000/svg" viewBox="0 0 14 14"><defs><style>.cls-1{fill:none;}.cls-2{fill:#393939;}</style></defs><title>drawers</title><rect class="cls-1" width="14" height="14"/><path class="cls-2" d="M12.06,8.48H12c-.11,0-.17,0-.22-.15q-.2-.5-.42-1c-.07-.15,0-.19.13-.18.39,0,.45-.06.45-.45V4.14a1.21,1.21,0,0,0-.06-.38l-.72-2.4c-.07-.23-.13-.28-.37-.28H3.26c-.24,0-.3,0-.37.27-.18.61-.35,1.22-.55,1.81a4.29,4.29,0,0,0-.23,1.59c0,.62,0,1.24,0,1.86s0,.52.52.55c.11,0,.13,0,.08.13-.13.3-.27.59-.38.9s-.18.32-.43.29-.33.11-.31.33,0,.41,0,.61c.07.81.13,1.62.2,2.43,0,.23.11.34.32.33s.24.07.22.24a.57.57,0,0,0,0,.13c0,.35.07.42.42.42h8.54c.17,0,.28-.1.28-.28a2.16,2.16,0,0,0,0-.36c0-.11,0-.15.14-.15.3,0,.38-.08.41-.38,0-.45.07-.89.11-1.33s.09-1.08.13-1.61C12.43,8.58,12.34,8.48,12.06,8.48ZM2.8,3.5c.18-.58.35-1.15.51-1.73a.21.21,0,0,1,.24-.17q3.45,0,6.9,0c.15,0,.2,0,.24.19.17.58.34,1.17.53,1.75,0,.15,0,.18-.13.18-1.37,0-2.73,0-4.09,0H3C2.73,3.72,2.72,3.75,2.8,3.5Zm-.16,3c0-.68,0-1.35,0-2,0-.14,0-.19.18-.18h8.34c.17,0,.2,0,.2.21,0,.67,0,1.34,0,2,0,.13,0,.16-.16.16H2.8C2.67,6.62,2.64,6.58,2.64,6.46Zm8.41,2H3c-.17,0-.18,0-.12-.18.15-.33.29-.66.43-1a.2.2,0,0,1,.21-.15h7a.2.2,0,0,1,.21.13c.14.35.28.69.44,1C11.22,8.45,11.19,8.48,11.05,8.48Zm0,3.87c0,.07,0,.1-.11.1H3.08c-.09,0-.18,0-.18-.14s0-.14.13-.12H10.9C11,12.19,11.13,12.17,11.1,12.35Zm.75-3.14c-.07.75-.13,1.51-.19,2.27,0,.13-.05.17-.18.16h-9c-.13,0-.17,0-.18-.16-.06-.76-.12-1.53-.19-2.29,0-.15,0-.19.17-.19h9.34C11.83,9,11.87,9,11.85,9.21Zm-5,.86H6.2c-.09,0-.13,0-.12-.11v0c0-.39,0-.39.37-.39h1c.12,0,.17,0,.17.16,0,.38,0,.38-.37.38Zm0-5H6.2c-.1,0-.12,0-.13-.13,0-.41,0-.41.39-.41h1c.12,0,.15,0,.15.14,0,.4,0,.4-.38.4Z" transform="translate(0 0)"/></svg>