<svg id="Layer_1" data-name="Layer 1" xmlns="http://www.w3.org/2000/svg" viewBox="0 0 14 14"><defs><style>.cls-1{fill:none;}.cls-2{fill:#393939;}</style></defs><title>lamp</title><rect class="cls-1" width="14" height="14"/><path class="cls-2" d="M8,8.07h2.89a.83.83,0,0,0,.87-1.14c-.4-1.57-.8-3.15-1.19-4.73A1.3,1.3,0,0,0,9.28,1.12c-1.52,0-3,0-4.57,0A1.31,1.31,0,0,0,3.42,2.18L3.12,3.4c-.3,1.21-.61,2.43-.91,3.65a.8.8,0,0,0,.8,1h.68c.2,0,.46-.07.58,0s0,.38,0,.59,0,.45,0,.68a.26.26,0,0,0,.26.29c.18,0,.26-.12.28-.28a.65.65,0,0,0,0-.14c0-.34,0-.69,0-1,0-.12,0-.15.16-.15H6c.15,0,.18,0,.18.18q0,1.29,0,2.58c0,.14,0,.18-.18.18H4.36a1.32,1.32,0,0,0-1.31.93c-.2.59,0,1,.67,1,1.09,0,2.18,0,3.27,0H10.4a.56.56,0,0,0,.6-.72A1.33,1.33,0,0,0,9.64,11H8c-.14,0-.17,0-.16-.16,0-.87,0-1.73,0-2.59C7.79,8.09,7.85,8.07,8,8.07Zm1.6,3.48a.82.82,0,0,1,.85.59c0,.15,0,.21-.16.21H3.71c-.17,0-.21,0-.17-.2a.81.81,0,0,1,.81-.6c.36,0,.72,0,1.08,0Zm-2.33-.72c0,.15,0,.18-.18.18-.37,0-.37,0-.37-.36V9.55c0-.44,0-.88,0-1.32,0-.13,0-.16.16-.16.39,0,.39,0,.39.38ZM7,7.53H3.13c-.37,0-.46-.12-.37-.48C3.15,5.46,3.55,3.87,4,2.28a.81.81,0,0,1,.85-.63H9.19a.81.81,0,0,1,.86.68c.39,1.57.78,3.13,1.18,4.7.09.39,0,.5-.39.5Z" transform="translate(0 0)"/></svg>